<?xml version="1.0" encoding="utf-8"?>
<!-- Generator: Adobe Illustrator 22.1.0, SVG Export Plug-In . SVG Version: 6.00 Build 0)  -->
<svg version="1.1" id="图层_1" xmlns="http://www.w3.org/2000/svg" xmlns:xlink="http://www.w3.org/1999/xlink" x="0px" y="0px"
	 viewBox="0 0 850.4 850.4" style="enable-background:new 0 0 850.4 850.4;" xml:space="preserve">
<style type="text/css">
	.st0{display:none;}
	.st1{display:inline;fill:none;stroke:current;stroke-miterlimit:10;}
	.st2{stroke:current;stroke-width:15;stroke-linecap:round;stroke-linejoin:round;stroke-miterlimit:10;}
	.st3{fill:none;stroke:current;stroke-width:15;stroke-linecap:round;stroke-linejoin:round;stroke-miterlimit:10;}
</style>
<g id="图层_1_1_" class="st0">
	
		<image style="display:inline;overflow:visible;enable-background:new    ;" width="512" height="512" xlink:href="AFFF1626.png"  transform="matrix(1.6609 0 0 1.6609 0 2.402959e-05)">
	</image>
</g>
<g id="图层_2_1_" class="st0">
	<circle class="st1" cx="424.4" cy="671.8" r="417.6"/>
	<ellipse class="st1" cx="416.2" cy="680" rx="88.8" ry="103.9"/>
</g>
<path class="st2" d="M336,680H119c0,0,12-72,11-90h-23l51-101.3h-23.8v-3.6H160l28.8,67.1H209l12.5-66l-8.3-18l41.8-79h-24v-3.8h26
	l41,79.3l2,22.3l31.3-71.5l15,44.8H360c0,0,8-32.3-10-65l25-67.3h-25.3v-4h27l25.8,66.3l16.5-39.5l12,16.8l1.3-15l9-3.5v-86h-8.5
	l36.8-90.8H447V168h24.3l42.6,95.6h-10.3v92.7l8,5.8c0,0-3.3,90.8,25.3,103.3v-18.8l-3.3-4l17.3-61.5h-19.3v-3.3h20.8l19,64.5
	c0,0-11.3,42.3,19.8,57.8l26.3-76h-20v-3.8h23L652,518c0,0,15.5-8.8,15.3-40.3H655V474h13.8l50.8,117.5h-21c0,0-11.3,36.5,6.5,88.5
	H498c0,0,8.8-106-80.8-106S336,680,336,680z"/>
<path class="st3" d="M7.8,680c0,0,16.5-429.6,430-429.6"/>
<path class="st3" d="M513.8,263.6c0,0,329.2,56.4,329.2,416.4"/>
</svg>
